<svg xmlns="http://www.w3.org/2000/svg" xmlns:xlink="http://www.w3.org/1999/xlink" width="700" height="108" viewBox="0 0 700 108"><defs><path id="9cgda" d="M906.72 364.96l15.83-78.1h-13l-15.69 78.1z"/><path id="9cgdb" d="M1032.64 354v.03z"/><path id="9cgdc" d="M1032.64 353.97v.03z"/><path id="9cgdd" d="M789.32 286.83h27.36c10.35 0 17.08 1.65 22.39 6.09 5.55 4.7 8.83 12.27 6.66 22.93-1.96 9.8-8.66 16.88-17.31 20.73l-.07.27c12.58 1.93 17.9 12.58 15.32 25.3-3.48 17.15-19.99 29.73-37.65 29.73h-37.94zm20.56 45.76c10.76 0 20.46-6.22 22.53-16.47 1.08-5.38.06-9.81-2.64-12.85-2.8-3.18-7.85-4.84-15.6-4.84h-13.93l-6.9 34.16h16.57zm-6.05 47.7c17.79 0 24.62-8.43 26.55-17.97 1.69-8.29-1.42-18.1-19.25-18.1h-20.16l-7.3 36.1h20.16z"/><path id="9cgde" d="M985.76 364.96c-5.65 9.94-16.54 17.01-27.63 17.01-13.12 0-23.91-10.11-20.57-26.65 2.44-12.04 14.68-25.47 31.53-25.47 7 0 12.92 3.11 16.6 8.12h14.14c-3.52-10.28-12.95-19.62-30.6-19.72-20.3-.17-40.7 16.17-44.89 36.9-4.57 22.66 10.18 38.42 30.2 38.42 19.35 0 37.92-9.43 45.3-28.61z"/><path id="9cgdf" d="M866.2 391.92h-12.82l21.14-105.06h13.02z"/><path id="9cgdg" d="M1122.38 319.87h12.44l-2.06 10.25h.27c8.49-11.2 14.54-11.87 25.06-11.87l-2.64 13.12a23.9 23.9 0 0 0-5.5-.67c-10.33 0-18.72 7.17-21.39 20.32l-8.25 40.93h-12.45l14.55-72.04z"/><path id="9cgdh" d="M1205.1 383.46h-.27c-5.03 6.5-13.76 10.11-21.78 10.11-13.96 0-26.25-7.6-22.29-27.09l9.4-46.6h12.42l-8.46 41.9c-2.2 10.76.34 20.16 12.65 20.16 11.57 0 20.23-7.85 23-21.55l8.19-40.52h12.41l-14.54 72.05h-12.41z"/><path id="9cgdi" d="M1293.08 319.87h16.3l-40 33.32 26.14 38.73h-17.42l-22.87-34.98-7.07 34.98h-12.45L1257 286.86h12.42l-13.03 64.4z"/><path id="9cgdj" d="M1092.58 364.96l15.8-78.13h-12.46l-8.49 41.97c-4.53-5.38-11.5-9.47-21.44-10.38h-.13l-1.19-.1c-.88-.07-1.8-.1-2.7-.1-20.3-.14-40.66 16.16-44.85 36.9-4.6 22.66 10.18 38.42 30.2 38.42.85 0 1.7-.03 2.5-.07 9.44-.4 18.57-3.08 26.22-8.05l-1.29 6.46h12.42l5.47-26.92v-.03zm-19.18 6.8c-.03 0-.07.07-.1.1-.44.47-.92.91-1.4 1.35a48.68 48.68 0 0 1-1.72 1.52c-.94.75-1.92 1.46-2.94 2.1l-.68.47c-.37.24-.77.48-1.14.68-.34.2-.65.37-.98.58-.38.2-.72.37-1.09.54-.44.17-.88.4-1.32.57-.3.14-.57.27-.87.37-.75.28-1.46.51-2.2.78-.24.07-.48.1-.71.17-.58.17-1.12.3-1.7.4-.27.07-.54.1-.84.18a25.28 25.28 0 0 1-2.44.3c-.8.1-1.59.14-2.4.14-5.3 0-10.28-1.66-14.03-4.77a18.96 18.96 0 0 1-6.26-9.54l-.3-1.22c-.75-3.28-.79-7 .06-11.16 2.44-12.04 14.65-25.47 31.53-25.47h.03c.88 0 1.69.03 2.5.14l.58.1 1.82.3c.17.04.37.1.54.17.61.17 1.19.34 1.8.54.13.04.27.1.37.17.6.24 1.25.47 1.82.78.07.07.17.1.24.13.61.34 1.25.68 1.83 1.05a17.32 17.32 0 0 1 1.9 1.39 21.2 21.2 0 0 1 3.14 3.35c3.45 4.67 4.97 11 3.55 18.03a30.63 30.63 0 0 1-3.45 9 33.15 33.15 0 0 1-5.07 6.76z"/><path id="9cgdk" d="M905.5 383.22a8.72 8.72 0 0 1-17.45 0 8.72 8.72 0 1 1 17.45 0z"/><path id="9cgdl" d="M715.51 340.2A52.51 52.51 0 0 1 663 392.73a52.51 52.51 0 0 1-52.53-52.53 52.51 52.51 0 0 1 52.53-52.53 52.51 52.51 0 0 1 52.52 52.53z"/></defs><g><g transform="translate(-610 -286)"><g/><g><g><use fill="#373435" xlink:href="#9cgda"/></g><g><use fill="#fefefe" xlink:href="#9cgdb"/></g><g><use fill="#fefefe" xlink:href="#9cgdc"/></g><g><use fill="#373435" xlink:href="#9cgdd"/></g><g><use fill="#373435" xlink:href="#9cgde"/></g><g><use fill="#373435" xlink:href="#9cgdf"/></g><g><use fill="#fab13b" xlink:href="#9cgdg"/></g><g><use fill="#fab13b" xlink:href="#9cgdh"/></g><g><use fill="#fab13b" xlink:href="#9cgdi"/></g><g><use fill="#fab13b" xlink:href="#9cgdj"/></g><g><use fill="#fab13b" xlink:href="#9cgdk"/></g><g><use fill="#fab13b" xlink:href="#9cgdl"/></g></g></g></g></svg>